<?xml version="1.0" standalone="no"?>
<!DOCTYPE svg PUBLIC "-//W3C//DTD SVG 1.1//EN"
"http://www.w3.org/Graphics/SVG/1.1/DTD/svg11.dtd">
<svg xmlns="http://www.w3.org/2000/svg" version="1.1" >

    <svg id="user-circle" xmlns="http://www.w3.org/2000/svg" 
        class="icon icon-tabler icon-tabler-user-circle" 
        width="24" height="24" 
        viewBox="0 0 24 24" 
        stroke-width="2" 
        stroke="var(--icon-color, #000)" 
        fill="none" 
        stroke-linecap="round" 
        stroke-linejoin="round">
        <path stroke="none" d="M0 0h24v24H0z" fill="none"/>
        <path d="M12 12m-9 0a9 9 0 1 0 18 0a9 9 0 1 0 -18 0" />
        <path d="M12 10m-3 0a3 3 0 1 0 6 0a3 3 0 1 0 -6 0" />
        <path d="M6.168 18.849a4 4 0 0 1 3.832 -2.849h4a4 4 0 0 1 3.834 2.855" />
    </svg>

    <svg id="logout" xmlns="http://www.w3.org/2000/svg" 
        class="icon icon-tabler icon-tabler-logout" 
        width="24" height="24" 
        viewBox="0 0 24 24" 
        stroke-width="2" 
        stroke="var(--icon-color, #000)" 
        fill="none" 
        stroke-linecap="round" 
        stroke-linejoin="round">
        <path stroke="none" d="M0 0h24v24H0z" fill="none"/>
        <path d="M14 8v-2a2 2 0 0 0 -2 -2h-7a2 2 0 0 0 -2 2v12a2 2 0 0 0 2 2h7a2 2 0 0 0 2 -2v-2" />
        <path d="M9 12h12l-3 -3" />
        <path d="M18 15l3 -3" />
    </svg>

    <svg id="settings" xmlns="http://www.w3.org/2000/svg" 
        class="icon icon-tabler icon-tabler-settings" 
        width="24" height="24" 
        viewBox="0 0 24 24" 
        stroke-width="2" 
        stroke="var(--icon-color, #000)" 
        fill="none" 
        stroke-linecap="round" 
        stroke-linejoin="round">
        <path stroke="none" d="M0 0h24v24H0z" fill="none"></path>
        <path d="M10.325 4.317c.426 -1.756 2.924 -1.756 3.35 0a1.724 1.724 0 0 0 2.573 1.066c1.543 -.94 3.31 .826 2.37 2.37a1.724 1.724 0 0 0 1.065 2.572c1.756 .426 1.756 2.924 0 3.35a1.724 1.724 0 0 0 -1.066 2.573c.94 1.543 -.826 3.31 -2.37 2.37a1.724 1.724 0 0 0 -2.572 1.065c-.426 1.756 -2.924 1.756 -3.35 0a1.724 1.724 0 0 0 -2.573 -1.066c-1.543 .94 -3.31 -.826 -2.37 -2.37a1.724 1.724 0 0 0 -1.065 -2.572c-1.756 -.426 -1.756 -2.924 0 -3.35a1.724 1.724 0 0 0 1.066 -2.573c-.94 -1.543 .826 -3.31 2.37 -2.37c1 .608 2.296 .07 2.572 -1.065z"></path>
        <path d="M9 12a3 3 0 1 0 6 0a3 3 0 0 0 -6 0"></path>
    </svg>

    <svg id="tools" xmlns="http://www.w3.org/2000/svg" 
        class="icon icon-tabler icon-tabler-tools" 
        width="24" height="24" 
        viewBox="0 0 24 24" 
        stroke-width="2" 
        stroke="var(--icon-color, #000)" 
        fill="none" 
        stroke-linecap="round" 
        stroke-linejoin="round">
        <path stroke="none" d="M0 0h24v24H0z" fill="none"></path>
        <path d="M3 21h4l13 -13a1.5 1.5 0 0 0 -4 -4l-13 13v4"></path>
        <path d="M14.5 5.5l4 4"></path>
        <path d="M12 8l-5 -5l-4 4l5 5"></path>
        <path d="M7 8l-1.5 1.5"></path>
        <path d="M16 12l5 5l-4 4l-5 -5"></path>
        <path d="M16 17l-1.5 1.5"></path>
    </svg>

    <svg id="home" xmlns="http://www.w3.org/2000/svg" 
        class="icon icon-tabler icon-tabler-home-2" 
        width="24" height="24" 
        viewBox="0 0 24 24" 
        stroke-width="2" 
        stroke="var(--icon-color, #000)" 
        fill="none" 
        stroke-linecap="round" 
        stroke-linejoin="round">
        <path stroke="none" d="M0 0h24v24H0z" fill="none"></path>
        <path d="M5 12l-2 0l9 -9l9 9l-2 0"></path>
        <path d="M5 12v7a2 2 0 0 0 2 2h10a2 2 0 0 0 2 -2v-7"></path>
        <path d="M10 12h4v4h-4z"></path>
    </svg>

    <svg id="code-brackets" xmlns="http://www.w3.org/2000/svg" 
        class="icon icon-tabler icon-tabler-code" 
        width="24" height="24" 
        viewBox="0 0 24 24" 
        stroke-width="2" 
        stroke="var(--icon-color, #000)" 
        fill="none" 
        stroke-linecap="round" 
        stroke-linejoin="round">
        <path stroke="none" d="M0 0h24v24H0z" fill="none"></path>
        <path d="M7 8l-4 4l4 4"></path>
        <path d="M17 8l4 4l-4 4"></path>
        <path d="M14 4l-4 16"></path>
    </svg>
</svg>
